<?xml version="1.0" standalone="no"?>
<!DOCTYPE svg PUBLIC "-//W3C//DTD SVG 20010904//EN"
 "http://www.w3.org/TR/2001/REC-SVG-20010904/DTD/svg10.dtd">
<svg version="1.0" xmlns="http://www.w3.org/2000/svg"
 width="700.000000pt" height="700.000000pt" viewBox="0 0 700.000000 700.000000"
 preserveAspectRatio="xMidYMid meet">
<metadata>
Created by potrace 1.14, written by Peter Selinger 2001-2017
</metadata>
<g transform="translate(0.000000,700.000000) scale(0.100000,-0.100000)"
fill="#000000" stroke="none">
<path d="M1682 5688 c-141 -24 -253 -147 -287 -316 -5 -24 -10 -3658 -5 -4029
0 -33 0 -33 168 108 92 77 178 151 192 162 14 12 75 64 136 114 62 51 114 99
116 105 2 7 4 209 3 449 l-1 436 276 0 c151 0 277 -4 280 -8 3 -4 5 -98 4
-208 0 -111 2 -201 4 -201 3 0 117 95 132 110 3 3 73 61 155 130 168 140 167
139 250 209 51 43 62 48 75 37 13 -12 524 -441 654 -550 28 -22 68 -57 91 -76
23 -19 66 -55 95 -80 30 -25 86 -72 125 -105 38 -33 140 -118 225 -190 85 -71
166 -139 180 -151 14 -13 70 -60 124 -106 55 -46 133 -111 174 -145 41 -35 77
-61 80 -59 4 2 7 607 7 1344 -1 1197 1 1341 15 1344 8 2 163 3 343 3 l328 0
-4 685 c-1 377 -6 695 -9 706 -26 90 -93 186 -161 233 -86 58 30 55 -1924 55
-991 1 -1819 -2 -1841 -6z"/>
</g>
</svg>
